<svg width="400" height="400" viewBox="0 0 400 400" fill="none" xmlns="http://www.w3.org/2000/svg">
  <defs>
    <clipPath id="bowl-clip">
      <rect x="175" y="0" width="400" height="400" />
    </clipPath>
  </defs>

  <style>
    .bg { fill: #FFFFFF; }
    .mark { fill: oklch(0.5 0.18 25); }
    .gap { stroke: #FFFFFF; stroke-width: 12; stroke-linejoin: miter; stroke-linecap: butt; }
    
    @media (prefers-color-scheme: dark) {
      .bg { fill: #000000; }
      .mark { fill: #FFFFFF; }
      .gap { stroke: #000000; }
      
    }
  </style>

  <circle cx="200" cy="200" r="200" class="bg"/>

  <g transform="translate(15, 20) scale(2)">
    <!-- 1. Full D (Back) -->
    <path class="mark" fill-rule="evenodd" d="M40 40H90L140 90L90 140H40V40ZM70 70V110H90L110 90L90 70H70Z"/>
    
    <!-- 2. Gap for Arrow (cuts D spine) -->
    <path class="gap" fill="none" d="M15 76H130V55L170 90L130 125V104H15Z"/>
    
    <!-- 3. Arrow (Middle) -->
    <path class="mark" d="M15 76H130V55L170 90L130 125V104H15Z"/>

    <!-- 4. Gap for Bowl (cuts Arrow) -->
    <path class="gap" fill="none" clip-path="url(#bowl-clip)" d="M40 40H90L140 90L90 140H40V40ZM70 70V110H90L110 90L90 70H70Z"/>

    <!-- 5. Bowl (Front) -->
    <path class="mark" fill-rule="evenodd" clip-path="url(#bowl-clip)" d="M40 40H90L140 90L90 140H40V40ZM70 70V110H90L110 90L90 70H70Z"/>
  </g>

  
</svg>
