<svg width="980" height="260" viewBox="0 0 980 260" fill="none" xmlns="http://www.w3.org/2000/svg">
  <defs>
    <clipPath id="bowl-clip">
      <rect x="154" y="0" width="980" height="260" />
    </clipPath>
  </defs>

  <style>
    .mark { fill: oklch(0.5 0.18 25); }
    .gap { stroke: oklch(0.985 0 0); stroke-width: 9.6; stroke-linejoin: miter; stroke-linecap: butt; }
    .text { fill: oklch(0.16 0 0); font-family: Georgia, "Times New Roman", serif; font-weight: 700; font-size: 110px; letter-spacing: 0.18em; }
    @media (prefers-color-scheme: dark) {
      .mark { fill: oklch(0.95 0 0); }
      .gap { stroke: oklch(0.13 0 0); }
      .text { fill: oklch(0.95 0 0); }
    }
  </style>

  <g transform="translate(26, -14) scale(1.6)">
    <!-- 1. Full D (Back) -->
    <path class="mark" fill-rule="evenodd" d="M40 40H90L140 90L90 140H40V40ZM70 70V110H90L110 90L90 70H70Z"/>
    
    <!-- 2. Gap for Arrow (cuts D spine) -->
    <path class="gap" fill="none" d="M15 76H130V55L170 90L130 125V104H15Z"/>
    
    <!-- 3. Arrow (Middle) -->
    <path class="mark" d="M15 76H130V55L170 90L130 125V104H15Z"/>

    <!-- 4. Gap for Bowl (cuts Arrow) -->
    <path class="gap" fill="none" clip-path="url(#bowl-clip)" d="M40 40H90L140 90L90 140H40V40ZM70 70V110H90L110 90L90 70H70Z"/>

    <!-- 5. Bowl (Front) -->
    <path class="mark" fill-rule="evenodd" clip-path="url(#bowl-clip)" d="M40 40H90L140 90L90 140H40V40ZM70 70V110H90L110 90L90 70H70Z"/>
  </g>

  <text x="315" y="165" class="text" text-anchor="start">ISPATCH</text>
</svg>
